<svg width="743" height="469" viewBox="0 0 743 469" fill="none" xmlns="http://www.w3.org/2000/svg">
<path d="M362.71 468.13C548.918 468.13 699.87 465.43 699.87 462.1C699.87 458.77 548.918 456.07 362.71 456.07C176.502 456.07 25.55 458.77 25.55 462.1C25.55 465.43 176.502 468.13 362.71 468.13Z" fill="#F7E1AC"/>
<path d="M414.46 265.43V450.95C414.46 452.06 414.29 453.11 413.98 454.13C412.62 458.73 408.36 462.09 403.28 462.09H96.75C90.57 462.09 85.58 457.1 85.58 450.95V144.39C85.58 138.24 90.57 133.25 96.75 133.25H360.71L394.63 216.66L404.23 240.27L408.29 250.24L412.41 260.39L413.16 262.22L414.46 265.43Z" fill="#453B22"/>
<path d="M33.9001 396.59C40.5101 398.71 44.14 405.79 41.99 412.39L34.48 435.55C46.03 434.27 56.27 426.42 60.1 414.67C61.83 409.32 61.9801 403.83 60.8401 398.69C59.6701 393.54 57.22 388.76 53.68 384.85L72.45 326.87L96 254.02L96.2 253.42C106.5 251.25 115.37 243.81 118.86 233.02C121.24 225.64 120.63 218.02 117.72 211.47C116.81 209.35 115.68 207.35 114.28 205.5C113.14 203.93 111.78 202.44 110.34 201.1L102.86 224.28C100.72 230.92 93.66 234.52 87.04 232.39C80.44 230.24 76.78 223.17 78.94 216.55L86.42 193.37C74.9 194.7 64.67 202.49 60.86 214.28C59.69 217.9 59.22 221.6 59.43 225.21C59.51 226.94 59.74 228.64 60.08 230.27C61.27 235.39 63.7301 240.15 67.2801 244.1L49.62 298.64L25.02 374.71L24.76 375.54C24.69 375.54 24.64 375.57 24.58 375.57C14.34 377.81 5.56003 385.23 2.07003 395.92C0.190034 401.79 0.170048 407.82 1.71005 413.34C1.72005 413.38 1.72001 413.38 1.73001 413.42C1.80001 413.66 1.87004 413.9 1.95004 414.11C3.57004 419.37 6.52005 424.1 10.5901 427.83L18.1 404.67C20.23 398.06 27.2901 394.46 33.9001 396.59Z" fill="#E8AC1C"/>
<path d="M482.84 133.53C518.551 133.53 547.5 104.581 547.5 68.87C547.5 33.1593 518.551 4.20999 482.84 4.20999C447.129 4.20999 418.18 33.1593 418.18 68.87C418.18 104.581 447.129 133.53 482.84 133.53Z" fill="#F7E1AC"/>
<path d="M406.12 128.88L190.74 289.66L138.21 10.16L406.12 128.88Z" fill="#F7E1AC"/>
<path d="M672.49 133.12L605.37 432.67L423 286.43L416.67 281.36L411.27 268.06L406.93 257.42V257.41L390.83 217.79L394.63 216.65L672.49 133.12Z" fill="#F7E1AC"/>
<path d="M611.05 57.94C611.05 57.75 611.02 57.56 610.96 57.38V57.37C610.96 57.36 610.96 57.36 610.95 57.35C610.94 57.32 610.93 57.28 610.91 57.25C610.9 57.23 610.9 57.22 610.89 57.2C610.88 57.19 610.88 57.19 610.88 57.18C610.87 57.17 610.87 57.15 610.86 57.14C610.85 57.12 610.84 57.1 610.83 57.08C610.83 57.07 610.82 57.06 610.82 57.05C610.81 57.04 610.81 57.03 610.8 57.02C610.74 56.91 610.68 56.81 610.6 56.72C610.59 56.71 610.59 56.71 610.58 56.7C610.5 56.6 610.4 56.51 610.29 56.42L569.42 24.51C569.36 24.46 569.29 24.42 569.22 24.38C569.2 24.37 569.18 24.35 569.16 24.34C569.12 24.32 569.07 24.3 569.03 24.28C568.98 24.26 568.92 24.23 568.87 24.21C568.82 24.19 568.77 24.18 568.72 24.17C568.69 24.16 568.65 24.15 568.62 24.15C568.57 24.14 568.51 24.13 568.45 24.13C568.39 24.12 568.32 24.12 568.25 24.12H308.45L310.94 30.25H338.78L321.53 45.78L318.4 48.59L320.64 54.08L323.77 51.27L345.87 31.38L373.18 56.03H321.43L324.11 62.62H555.71C554.65 62.62 553.79 63.48 553.79 64.54V70.74C553.79 71.8 554.65 72.66 555.71 72.66H565.02V124.96H561.63C560.48 124.96 559.4 125.46 558.66 126.34C557.92 127.21 557.6 128.36 557.78 129.5L561.6 152.75C561.91 154.64 563.53 156.02 565.45 156.02H569.37V159.42C569.37 160.14 569.95 160.72 570.67 160.72C573.1 160.72 575.07 162.69 575.07 165.12C575.07 167.55 573.09 169.52 570.67 169.52C568.24 169.52 566.27 167.55 566.27 165.12C566.27 164.4 565.69 163.82 564.97 163.82C564.25 163.82 563.67 164.4 563.67 165.12C563.67 168.99 566.82 172.13 570.68 172.13C574.55 172.13 577.69 168.98 577.69 165.12C577.69 161.7 575.23 158.84 571.98 158.23V156.01H575.43C577.31 156.01 578.93 154.67 579.27 152.81L583.55 129.56C583.76 128.42 583.46 127.25 582.71 126.36C581.97 125.47 580.87 124.95 579.71 124.95H576.32V72.65H586.36C587.42 72.65 588.28 71.79 588.28 70.73V64.53C588.28 63.47 587.42 62.61 586.36 62.61H609.11C609.2 62.61 609.28 62.6 609.37 62.59C609.39 62.59 609.41 62.58 609.44 62.58C609.61 62.55 609.78 62.5 609.95 62.42C610.01 62.39 610.06 62.36 610.12 62.32C610.14 62.31 610.16 62.3 610.18 62.28C610.38 62.15 610.54 61.98 610.68 61.79C610.69 61.78 610.7 61.77 610.71 61.76C610.72 61.75 610.72 61.74 610.73 61.73C610.8 61.62 610.85 61.51 610.9 61.39C610.92 61.35 610.94 61.3 610.95 61.26C611.01 61.08 611.04 60.89 611.04 60.69V57.94H611.05ZM574.6 124.95H566.77V72.65H574.6V124.95ZM486.58 31.37L513.88 56.02H459.18L486.58 31.37ZM451.35 55.57L423.3 30.25H479.5L451.35 55.57ZM493.65 30.25H549.84L521.7 55.57L493.65 30.25ZM558.18 30.25H565.47V56.03H529.53L558.18 30.25ZM571.05 32.98L600.14 56.02H571.05V32.98ZM409.15 30.25L381.01 55.57L352.96 30.25H409.15ZM416.23 31.37L443.53 56.02H388.83L416.23 31.37Z" fill="#453B22"/>
<path d="M573.36 169.87C569.49 169.87 566.35 166.72 566.35 162.86C566.35 162.14 566.93 161.56 567.65 161.56C568.37 161.56 568.95 162.14 568.95 162.86C568.95 165.29 570.93 167.26 573.35 167.26C575.77 167.26 577.75 165.29 577.75 162.86C577.75 160.43 575.77 158.46 573.35 158.46C572.63 158.46 572.05 157.88 572.05 157.16V153.52C572.05 152.8 572.63 152.22 573.35 152.22C574.07 152.22 574.65 152.8 574.65 153.52V155.98C577.89 156.59 580.36 159.45 580.36 162.87C580.37 166.72 577.23 169.87 573.36 169.87Z" fill="white"/>
<path d="M568.58 124.01C568.1 124.01 567.71 123.62 567.71 123.14V62.74C567.71 62.26 568.1 61.87 568.58 61.87C569.06 61.87 569.45 62.26 569.45 62.74V123.14C569.45 123.62 569.06 124.01 568.58 124.01Z" fill="white"/>
<path d="M578.15 124.01C577.67 124.01 577.28 123.62 577.28 123.14V62.74C577.28 62.26 577.67 61.87 578.15 61.87C578.63 61.87 579.02 62.26 579.02 62.74V123.14C579.01 123.62 578.63 124.01 578.15 124.01Z" fill="white"/>
<path d="M613.72 55.68C613.72 55.61 613.72 55.53 613.71 55.46C613.71 55.42 613.69 55.39 613.69 55.35C613.68 55.29 613.67 55.23 613.65 55.17C613.64 55.15 613.64 55.13 613.64 55.1C613.63 55.04 613.61 54.99 613.58 54.93C613.57 54.92 613.57 54.92 613.57 54.91C613.56 54.89 613.55 54.87 613.54 54.84C613.54 54.83 613.53 54.82 613.53 54.81C613.52 54.8 613.52 54.79 613.51 54.77C613.47 54.69 613.42 54.63 613.37 54.56C613.34 54.52 613.32 54.48 613.3 54.45C613.26 54.4 613.21 54.36 613.16 54.31C613.11 54.26 613.06 54.2 613 54.15L572.13 22.24C572.07 22.19 572 22.15 571.93 22.11C571.91 22.1 571.89 22.08 571.87 22.07C571.83 22.05 571.78 22.03 571.74 22.01C571.69 21.99 571.63 21.96 571.58 21.94C571.53 21.92 571.48 21.91 571.43 21.9C571.4 21.89 571.36 21.88 571.33 21.88C571.28 21.87 571.22 21.86 571.16 21.86C571.1 21.86 571.03 21.85 570.96 21.85H311.16L313.65 27.98H341.49L324.24 43.51L321.11 46.32L323.35 51.81L326.48 49L348.58 29.11L375.89 53.76H324.14L326.82 60.35H611.82C611.94 60.35 612.07 60.33 612.19 60.31C612.23 60.3 612.27 60.29 612.31 60.28C612.34 60.27 612.37 60.27 612.4 60.26C612.45 60.25 612.5 60.23 612.54 60.21C612.55 60.21 612.56 60.21 612.56 60.2C612.57 60.2 612.58 60.19 612.6 60.18C612.62 60.17 612.63 60.17 612.65 60.16C612.95 60.02 613.2 59.8 613.38 59.53C613.39 59.52 613.4 59.51 613.41 59.5C613.42 59.49 613.42 59.48 613.43 59.47C613.5 59.36 613.56 59.25 613.6 59.13C613.62 59.09 613.64 59.04 613.65 59C613.71 58.82 613.74 58.63 613.74 58.43L613.72 55.68C613.72 55.69 613.72 55.69 613.72 55.68ZM489.26 29.11L516.56 53.76H461.86L489.26 29.11ZM454.03 53.31L425.98 27.99H482.17L454.03 53.31ZM496.33 27.99H552.52L524.38 53.31L496.33 27.99ZM560.86 27.99H568.15V53.77H532.21L560.86 27.99ZM573.72 30.72L602.81 53.76H573.72V30.72ZM411.82 27.99L383.68 53.31L355.63 27.99H411.82ZM418.91 29.11L446.21 53.76H391.51L418.91 29.11Z" fill="#E8AC1C"/>
<path d="M556.48 68.47V62.27C556.48 61.21 557.34 60.35 558.4 60.35H589.05C590.11 60.35 590.97 61.21 590.97 62.27V68.47C590.97 69.53 590.11 70.39 589.05 70.39H558.4C557.34 70.39 556.48 69.53 556.48 68.47Z" fill="#E8AC1C"/>
<path d="M568.14 153.75C566.22 153.75 564.6 152.37 564.29 150.48L560.47 127.23C560.28 126.1 560.6 124.95 561.35 124.07C562.09 123.19 563.18 122.69 564.32 122.69H582.4C583.56 122.69 584.66 123.2 585.4 124.1C586.14 124.99 586.45 126.16 586.24 127.3L581.96 150.55C581.62 152.4 580.01 153.75 578.12 153.75H568.14Z" fill="#E8AC1C"/>
<path d="M471.57 124.78L454.55 160.25C453.28 162.89 454.4 166.06 457.04 167.33L535.23 204.85L714.88 277.85C715.89 278.26 716.99 278.25 717.99 277.83C718.99 277.41 719.77 276.62 720.18 275.61L733.93 241.77L592.78 174.03L471.57 124.78Z" fill="#E8AC1C"/>
<path d="M739.38 244.39L736.16 242.84L722.47 276.54C721.81 278.16 720.56 279.42 718.96 280.1C718.14 280.45 717.28 280.62 716.42 280.62C715.59 280.62 714.75 280.46 713.96 280.14L571.45 222.24L716.6 291.9C719.24 293.17 722.41 292.05 723.68 289.41L741.89 251.47C743.14 248.83 742.02 245.66 739.38 244.39Z" fill="#E8AC1C"/>
<path d="M479.83 119.83C477.19 118.56 474.02 119.68 472.75 122.32L472.64 122.56L556.56 156.66L479.83 119.83Z" fill="#E8AC1C"/>
<path d="M448.16 169.48C446.08 168.64 445.08 166.26 445.92 164.18L461.76 125.2C462.4 123.62 463.93 122.66 465.53 122.66C466.04 122.66 466.56 122.76 467.06 122.96L471.57 124.79L472.64 122.56L467.99 120.67C464.65 119.31 460.83 120.93 459.47 124.27L443.63 163.25C442.27 166.59 443.89 170.41 447.23 171.77L571.44 222.24L535.22 204.86L448.16 169.48Z" fill="#453B22"/>
<path d="M733.78 231.33C734.79 231.74 735.57 232.52 736 233.52C736.42 234.52 736.43 235.63 736.02 236.63L733.93 241.78L736.16 242.85L738.31 237.56C738.97 235.94 738.96 234.16 738.28 232.56C737.6 230.95 736.34 229.7 734.72 229.05L556.57 156.66L592.79 174.04L733.78 231.33Z" fill="#453B22"/>
<path d="M716.41 280.62C717.27 280.62 718.13 280.45 718.95 280.1C720.56 279.42 721.81 278.16 722.46 276.54L736.15 242.84L733.92 241.77L720.17 275.61C719.76 276.62 718.98 277.4 717.98 277.83C716.98 278.25 715.87 278.26 714.87 277.85L535.22 204.85L571.44 222.23L713.95 280.13C714.74 280.46 715.58 280.62 716.41 280.62Z" fill="#453B22"/>
<path d="M592.78 174.04L556.56 156.65L472.64 122.55L471.57 124.78L592.78 174.04Z" fill="#453B22"/>
<path d="M233.21 127.1C235.6 120.58 242.83 117.25 249.33 119.67L272.16 128.13C271.36 116.53 263.93 105.98 252.36 101.67C247.08 99.72 241.61 99.34 236.43 100.28C231.24 101.24 226.36 103.49 222.3 106.86L165.14 85.72L93.32 59.18L92.73 58.96C90.98 48.57 83.92 39.41 73.28 35.47C66.01 32.79 58.37 33.08 51.7 35.72C49.55 36.54 47.5 37.59 45.59 38.91C43.97 39.98 42.43 41.28 41.03 42.66L63.88 51.1C70.42 53.51 73.73 60.72 71.33 67.24C68.91 73.74 61.7 77.12 55.17 74.68L32.32 66.24C33.18 77.8 40.54 88.35 52.15 92.65C55.72 93.97 59.39 94.59 63.01 94.53C64.74 94.52 66.45 94.36 68.09 94.09C73.26 93.12 78.11 90.85 82.21 87.47L135.97 107.37L210.96 135.09L211.78 135.38C211.77 135.45 211.81 135.5 211.8 135.57C213.62 145.9 220.67 154.98 231.21 158.9C237 161.02 243.03 161.29 248.6 159.98C248.64 159.97 248.64 159.97 248.68 159.96C248.92 159.9 249.16 159.84 249.38 159.77C254.7 158.37 259.55 155.62 263.45 151.71L240.62 143.25C234.12 140.82 230.81 133.61 233.21 127.1Z" fill="#E8AC1C"/>
<path d="M240.9 168.1C236.57 168.1 232.27 167.2 228.23 165.45C217.97 160.93 211.03 151.64 209.57 140.54L209.44 140.48L136.22 108.35L84.38 85.58C80.09 88.58 75.1 90.5 69.9 91.17C68.09 91.36 66.31 91.41 64.58 91.32C60.79 91.16 57.03 90.28 53.42 88.7C42.08 83.72 34.63 72.47 34.45 60.05L34.42 58.13L58.49 68.68C61.25 69.9 64.31 69.97 67.12 68.88C69.96 67.78 72.2 65.64 73.44 62.84C75.94 57.12 73.32 50.42 67.59 47.92L43.51 37.36L44.96 36.08C46.57 34.66 48.25 33.44 49.93 32.46C51.9 31.26 54.11 30.27 56.46 29.53C63.81 27.11 71.77 27.5 78.88 30.61C89.02 35.07 96.11 44.56 97.54 55.5L167.58 86.23L222.74 110.45C226.99 107.47 231.99 105.55 237.23 104.91C242.84 104.24 248.53 105.08 253.7 107.34C265.09 112.37 272.52 123.63 272.63 136.04L272.65 137.95L248.61 127.38C245.84 126.16 242.77 126.09 239.96 127.19C237.14 128.29 234.92 130.43 233.71 133.2C232.5 135.98 232.43 139.06 233.53 141.87C234.63 144.68 236.76 146.9 239.53 148.11L263.58 158.69L262.14 159.97C257.9 163.74 252.7 166.34 247.08 167.47C246.82 167.54 246.56 167.59 246.31 167.63L246.04 166.42L246.25 167.64C244.48 167.95 242.69 168.1 240.9 168.1ZM211.97 139.82C213.2 150.23 219.64 158.96 229.22 163.19C234.48 165.48 240.22 166.18 245.81 165.22C245.83 165.21 245.83 165.21 245.9 165.2C246.11 165.16 246.32 165.12 246.49 165.08L246.58 165.06C251.14 164.15 255.4 162.2 259.02 159.38L238.55 150.38C235.17 148.91 232.58 146.21 231.24 142.78C229.9 139.36 229.98 135.61 231.46 132.22C232.94 128.84 235.64 126.23 239.08 124.89C242.51 123.55 246.26 123.63 249.63 125.12L270.11 134.12C269.29 123.45 262.63 113.97 252.73 109.59C247.97 107.5 242.72 106.73 237.55 107.35C232.49 107.98 227.68 109.88 223.64 112.85L223.07 113.27L166.61 88.48L96.49 57.72L95.26 57.17L95.18 56.46C94.07 46.1 87.44 37.06 77.89 32.86C71.34 29.99 64 29.64 57.22 31.87C55.04 32.56 53.02 33.46 51.19 34.57C50.15 35.18 49.12 35.88 48.1 36.66L68.58 45.63C75.55 48.68 78.74 56.83 75.7 63.81C74.2 67.21 71.47 69.82 68.01 71.16C64.58 72.49 60.85 72.4 57.49 70.91L37.01 61.93C37.88 72.6 44.55 82.07 54.41 86.41C57.74 87.87 61.2 88.68 64.69 88.82C66.31 88.9 67.96 88.86 69.61 88.69C74.6 88.05 79.41 86.14 83.5 83.15L84.07 82.73L137.21 106.07L210.42 138.2L212.08 138.91L211.97 139.7C211.97 139.75 211.97 139.79 211.97 139.82Z" fill="#453B22"/>
<path d="M529.78 292.78C529.78 284.77 529.78 285.37 529.78 277.38L519.01 274.19C517.27 268.83 516.66 266.98 514.91 261.61L521.77 252.68C517.06 246.23 517.41 246.73 512.71 240.25L502.15 244.02C497.56 240.7 495.98 239.55 491.42 236.22L491.72 225.01C484.12 222.52 484.7 222.73 477.08 220.25L470.73 229.52H457.5L451.15 220.25C443.54 222.73 444.11 222.52 436.51 225.01L436.83 236.22C432.27 239.55 430.69 240.7 426.1 244.02L415.52 240.25C411.53 245.78 411.2 246.23 408.27 250.24C407.76 250.93 407.17 251.74 406.48 252.69L412.4 260.39L413.34 261.61C413.27 261.82 413.21 262.02 413.14 262.22C412.35 264.65 411.8 266.35 411.25 268.06L440.15 339.13L443.51 347.39C444.9 347.84 446.21 348.27 448.43 348.99C449.21 349.24 450.11 349.53 451.17 349.87L457.52 340.63H470.75L477.1 349.87C484.72 347.43 484.14 347.6 491.74 345.11L491.44 333.9C495.99 330.59 497.58 329.43 502.17 326.12L512.73 329.88C517.43 323.42 517.08 323.9 521.79 317.42L514.93 308.53C516.68 303.17 517.29 301.31 519.03 295.95L529.78 292.78ZM478.12 304.16C477.82 304.37 477.53 304.58 477.23 304.79C476.97 304.96 476.7 305.14 476.43 305.3C475.88 305.63 475.32 305.94 474.75 306.23C474.46 306.37 474.17 306.51 473.88 306.64C472.7 307.17 471.48 307.61 470.21 307.94C468.76 308.32 467.25 308.57 465.71 308.68C465.19 308.71 464.67 308.73 464.15 308.73C461.7 308.73 459.34 308.36 457.11 307.67C447.49 304.67 440.5 295.68 440.5 285.06C440.5 276.51 445.03 269.03 451.82 264.88C454.48 263.26 457.48 262.14 460.7 261.67C461.82 261.5 462.98 261.41 464.15 261.41C471.29 261.41 477.68 264.57 482.01 269.56C485.61 273.71 487.8 279.13 487.8 285.06C487.78 292.91 483.98 299.85 478.12 304.16Z" fill="#453B22"/>
<path d="M524.84 284C524.84 276 524.84 276.59 524.84 268.6L514.07 265.41C512.33 260.05 511.72 258.2 509.97 252.83L516.83 243.9C512.12 237.45 512.47 237.95 507.77 231.46L497.21 235.24C492.62 231.92 491.04 230.77 486.48 227.43L486.78 216.22C479.18 213.73 479.76 213.94 472.14 211.46L465.79 220.73H452.56L446.21 211.46C438.6 213.93 439.17 213.73 431.57 216.22L431.89 227.43C427.33 230.77 425.75 231.91 421.16 235.24L410.58 231.46C407.03 236.38 406.37 237.28 404.2 240.25C403.51 241.19 402.66 242.34 401.53 243.9L408.39 252.83C407.79 254.68 407.33 256.1 406.91 257.4L440.14 339.12C441.37 339.52 442.82 339.98 445.05 340.71C445.42 340.82 445.8 340.95 446.21 341.08L452.56 331.84H465.79L472.14 341.08C479.76 338.64 479.18 338.81 486.78 336.32L486.48 325.11C491.03 321.8 492.62 320.64 497.21 317.33L507.77 321.09C512.47 314.63 512.12 315.11 516.83 308.63L509.97 299.74C511.72 294.38 512.33 292.51 514.07 287.16L524.84 284ZM473.18 295.39C472.88 295.6 472.59 295.81 472.29 296.01C472.03 296.19 471.76 296.36 471.49 296.53C470.94 296.86 470.38 297.17 469.81 297.46C469.52 297.6 469.23 297.74 468.94 297.87C467.76 298.4 466.54 298.84 465.27 299.17C463.82 299.56 462.31 299.81 460.77 299.91C460.25 299.94 459.73 299.96 459.21 299.96C456.76 299.96 454.4 299.58 452.17 298.89C442.55 295.9 435.56 286.91 435.56 276.29C435.56 267.74 440.09 260.26 446.88 256.1C449.54 254.48 452.54 253.36 455.76 252.9C456.88 252.73 458.04 252.64 459.21 252.64C466.35 252.64 472.74 255.8 477.07 260.78C480.67 264.93 482.86 270.35 482.86 276.29C482.84 284.13 479.04 291.08 473.18 295.39Z" fill="#E8AC1C"/>
<path d="M145.4 239.27H47.88C46.19 239.27 44.82 240.64 44.82 242.33V339.85C44.82 341.54 46.19 342.91 47.88 342.91H145.4C147.09 342.91 148.46 341.54 148.46 339.85V242.33C148.46 240.64 147.09 239.27 145.4 239.27Z" fill="#453B22"/>
<path d="M400.82 231.88V450.95C400.82 452.06 400.65 453.11 400.35 454.13C398.99 458.73 394.72 462.09 389.65 462.09H83.12C76.94 462.09 71.95 457.1 71.95 450.95V144.39C71.95 138.24 76.93 133.25 83.12 133.25H360.72L394.64 216.66L400.82 231.88Z" fill="white"/>
<path d="M363.6 254.13H162.72C159.8 254.13 157.41 251.74 157.41 248.82C157.41 245.9 159.8 243.51 162.72 243.51H363.6C366.52 243.51 368.91 245.9 368.91 248.82C368.92 251.74 366.52 254.13 363.6 254.13Z" fill="#FEF8EB"/>
<path d="M363.6 284.29H162.72C159.8 284.29 157.41 281.9 157.41 278.98C157.41 276.06 159.8 273.67 162.72 273.67H363.6C366.52 273.67 368.91 276.06 368.91 278.98C368.92 281.9 366.52 284.29 363.6 284.29Z" fill="#FEF8EB"/>
<path d="M363.6 314.46H162.72C159.8 314.46 157.41 312.07 157.41 309.15C157.41 306.23 159.8 303.84 162.72 303.84H363.6C366.52 303.84 368.91 306.23 368.91 309.15C368.92 312.07 366.52 314.46 363.6 314.46Z" fill="#FEF8EB"/>
<path d="M363.6 344.63H162.72C159.8 344.63 157.41 342.24 157.41 339.32C157.41 336.4 159.8 334.01 162.72 334.01H363.6C366.52 334.01 368.91 336.4 368.91 339.32C368.92 342.24 366.52 344.63 363.6 344.63Z" fill="#FEF8EB"/>
<path d="M363.6 374.79H162.72C159.8 374.79 157.41 372.4 157.41 369.48C157.41 366.56 159.8 364.17 162.72 364.17H363.6C366.52 364.17 368.91 366.56 368.91 369.48C368.92 372.4 366.52 374.79 363.6 374.79Z" fill="#FEF8EB"/>
<path d="M363.6 404.96H162.72C159.8 404.96 157.41 402.57 157.41 399.65C157.41 396.73 159.8 394.34 162.72 394.34H363.6C366.52 394.34 368.91 396.73 368.91 399.65C368.92 402.57 366.52 404.96 363.6 404.96Z" fill="#FEF8EB"/>
<path opacity="0.23" d="M348.72 159.74H36.51C31.91 159.74 28.18 163.47 28.18 168.07V197.02C28.18 201.62 31.91 205.35 36.51 205.35H348.72C353.32 205.35 357.05 201.62 357.05 197.02V168.07C357.05 163.46 353.32 159.74 348.72 159.74Z" fill="#C68D06"/>
<path d="M339.84 195.52H27.62C23.02 195.52 19.29 191.79 19.29 187.19V158.24C19.29 153.64 23.02 149.91 27.62 149.91H339.83C344.43 149.91 348.16 153.64 348.16 158.24V187.19C348.16 191.79 344.44 195.52 339.84 195.52Z" fill="#E8AC1C"/>
<path d="M41.73 182.11C46.9215 182.11 51.13 177.901 51.13 172.71C51.13 167.519 46.9215 163.31 41.73 163.31C36.5385 163.31 32.33 167.519 32.33 172.71C32.33 177.901 36.5385 182.11 41.73 182.11Z" fill="white"/>
<path d="M77.5347 174.721C78.6343 169.647 75.4127 164.643 70.339 163.544C65.2654 162.444 60.2611 165.666 59.1615 170.739C58.062 175.813 61.2836 180.817 66.3572 181.917C71.4308 183.016 76.4352 179.795 77.5347 174.721Z" fill="#453B22"/>
<path d="M94.98 182.11C100.171 182.11 104.38 177.901 104.38 172.71C104.38 167.519 100.171 163.31 94.98 163.31C89.7885 163.31 85.58 167.519 85.58 172.71C85.58 177.901 89.7885 182.11 94.98 182.11Z" fill="white"/>
<path opacity="0.23" d="M148.46 242.33V339.85C148.46 341.54 147.09 342.91 145.4 342.91H71.94V239.27H145.4C147.09 239.27 148.46 240.64 148.46 242.33Z" fill="#C68D06"/>
<path d="M138.18 333.9H40.66C38.97 333.9 37.6 332.53 37.6 330.84V233.32C37.6 231.63 38.97 230.26 40.66 230.26H138.18C139.87 230.26 141.24 231.63 141.24 233.32V330.84C141.24 332.53 139.87 333.9 138.18 333.9Z" fill="white"/>
<path d="M134.01 240.75V323.42C134.01 325.21 132.55 326.66 130.74 326.66H48.1C46.31 326.66 44.83 325.21 44.83 323.42V240.75C44.83 238.96 46.31 237.48 48.1 237.48H130.75C132.55 237.48 134.01 238.96 134.01 240.75Z" fill="#FEF8EB"/>
<path d="M134.01 282.07V323.42C134.01 325.21 132.55 326.66 130.74 326.66H48.1C46.31 326.66 44.83 325.21 44.83 323.42V316.31L76.9 286.19L89.42 298.11L113.48 265.54L134.01 282.07Z" fill="#E8AC1C"/>
<path d="M82.27 274.38C88.196 274.38 93 269.576 93 263.65C93 257.724 88.196 252.92 82.27 252.92C76.344 252.92 71.54 257.724 71.54 263.65C71.54 269.576 76.344 274.38 82.27 274.38Z" fill="white"/>
<path d="M489.83 452.39H485.15C484.6 452.39 484.16 451.95 484.16 451.4L484.17 362C484.17 361.46 484.61 361.01 485.16 361.01H489.84C490.39 361.01 490.83 361.45 490.83 362L490.82 451.4C490.81 451.94 490.37 452.39 489.83 452.39Z" fill="#453B22"/>
<path d="M661.3 452.4H656.62C656.08 452.4 655.63 451.96 655.63 451.41L655.64 362.01C655.64 361.47 656.08 361.02 656.63 361.02H661.31C661.86 361.02 662.3 361.46 662.3 362.01L662.29 451.41C662.29 451.96 661.85 452.4 661.3 452.4Z" fill="#453B22"/>
<path d="M498.58 461.84H476.04C474.73 461.84 473.66 460.78 473.66 459.46V452.66C473.66 451.35 474.72 450.28 476.04 450.28H498.58C499.89 450.28 500.96 451.34 500.96 452.66V459.46C500.96 460.77 499.9 461.84 498.58 461.84Z" fill="#453B22"/>
<path d="M670.41 461.85H647.87C646.56 461.85 645.49 460.79 645.49 459.47V452.67C645.49 451.36 646.55 450.29 647.87 450.29H670.41C671.72 450.29 672.79 451.35 672.79 452.67V459.47C672.79 460.78 671.72 461.85 670.41 461.85Z" fill="#453B22"/>
<path d="M683.65 375.44V400.18C683.65 402.98 681.55 405.32 678.84 405.69C678.57 405.72 678.34 405.75 678.07 405.75H629.9H606.97H553.2H509.03H467.24L461.66 392.04V375.44C461.66 372.37 464.16 369.86 467.24 369.86H501.32H524.25H550.26H573.23H622.2H648.21H678.09C681.15 369.87 683.65 372.37 683.65 375.44Z" fill="#E8AC1C"/>
<path d="M509.04 405.74H483.03L475.32 369.85H501.33L509.04 405.74Z" fill="white"/>
<path d="M558.01 405.74H532L524.26 369.85L550.27 369.86L558.01 405.74Z" fill="white"/>
<path d="M606.98 405.74H580.97L573.23 369.86H599.24L606.98 405.74Z" fill="white"/>
<path d="M655.91 405.75H629.91L622.2 369.86H648.21L655.91 405.75Z" fill="white"/>
<path d="M683.66 375.44V400.18C683.66 402.98 681.56 405.32 678.85 405.69L671.14 369.87H678.08C681.15 369.86 683.66 372.37 683.66 375.44Z" fill="white"/>
<path d="M491.17 166.72L487.25 164.84L492.71 153.46C493.3 152.23 493.45 151.24 493.17 150.49C492.89 149.74 492.4 149.2 491.7 148.86C490.59 148.33 489.44 148.32 488.26 148.84C487.08 149.36 486 150.64 485.03 152.67L480.7 161.69L476.78 159.81L488.05 136.32L491.97 138.2L487.58 147.36C489.76 145.33 492.06 144.9 494.51 146.07C498.08 147.78 498.88 150.69 496.91 154.78L491.17 166.72Z" fill="white"/>
<path d="M505.41 169.79L503.94 172.85C502.65 172.54 501.68 172.23 501.04 171.92C499.98 171.41 499.18 170.77 498.62 169.99C498.06 169.21 497.79 168.37 497.79 167.47C497.79 166.57 498.15 165.37 498.88 163.85L503.2 154.85L501.03 153.81L502.49 150.76L504.88 151.91L507.41 147.56L510.77 148.81L508.46 153.63L511.95 155.31L510.49 158.36L507 156.68L502.93 165.16C502.41 166.25 502.25 167.09 502.45 167.67C502.66 168.26 503.31 168.81 504.41 169.34C504.72 169.5 505.05 169.64 505.41 169.79Z" fill="white"/>
<path d="M516.76 175.24L515.29 178.3C514 177.99 513.03 177.68 512.39 177.37C511.33 176.86 510.53 176.22 509.97 175.44C509.41 174.66 509.14 173.82 509.14 172.92C509.14 172.02 509.5 170.82 510.23 169.3L514.55 160.3L512.38 159.26L513.84 156.21L516.23 157.36L518.76 153.01L522.12 154.26L519.81 159.08L523.3 160.76L521.84 163.81L518.35 162.13L514.28 170.61C513.76 171.7 513.6 172.54 513.8 173.12C514.01 173.71 514.66 174.26 515.76 174.79C516.08 174.95 516.41 175.1 516.76 175.24Z" fill="white"/>
<path d="M519.77 187.67L515.78 185.75L526.94 162.5L530.69 164.3L529.24 167.33C531.53 165.65 533.84 165.37 536.18 166.49C538.11 167.41 539.24 168.99 539.59 171.22C539.93 173.45 539.48 175.86 538.23 178.46C537.05 180.93 535.47 182.81 533.5 184.11C531.53 185.41 529.46 185.54 527.29 184.5C525.05 183.43 523.88 181.72 523.76 179.37L519.77 187.67ZM526.01 174.68C525.4 175.94 525.28 177.17 525.63 178.36C525.98 179.55 526.62 180.37 527.54 180.81C528.79 181.41 529.97 181.3 531.07 180.48C532.17 179.66 533.13 178.41 533.94 176.72C534.79 174.95 535.18 173.38 535.13 171.99C535.08 170.6 534.47 169.63 533.31 169.07C532.27 168.57 531.16 168.6 530 169.15C528.84 169.71 527.9 170.72 527.2 172.19L526.01 174.68Z" fill="white"/>
<path d="M537.38 183.99L541.4 185.05C541.28 186.73 542.19 188.03 544.1 188.95C546.53 190.12 548.09 189.98 548.78 188.55C549 188.09 548.99 187.62 548.76 187.14C548.52 186.66 548.17 186.24 547.71 185.89L544.83 183.77C541.64 181.41 540.71 178.85 542.03 176.1C542.77 174.56 543.95 173.52 545.58 172.99C547.21 172.45 549.12 172.71 551.33 173.77C555 175.53 556.6 177.96 556.12 181.04L552.29 180.07C552.55 178.59 551.82 177.43 550.1 176.61C548.01 175.61 546.65 175.76 546.03 177.07C545.6 177.98 546.14 179.01 547.66 180.16L551.02 182.73C553.64 184.72 554.29 187.08 552.98 189.81C552.06 191.73 550.63 192.8 548.68 193.03C546.73 193.26 544.73 192.88 542.68 191.9C540.9 191.05 539.5 189.93 538.48 188.56C537.45 187.17 537.09 185.65 537.38 183.99Z" fill="white"/>
<path d="M565.38 182.37L563.32 186.66L559.07 184.62L561.13 180.33L565.38 182.37ZM559.66 194.3L557.6 198.6L553.35 196.56L555.41 192.26L559.66 194.3Z" fill="white"/>
<path d="M586.8 183.72L557.34 205.7L554.9 204.53L584.29 182.51L586.8 183.72Z" fill="white"/>
<path d="M603.68 191.82L574.22 213.8L571.78 212.63L601.17 190.61L603.68 191.82Z" fill="white"/>
<path d="M602.01 214.37L599.85 218.88L595.6 216.84L597.76 212.33L602.01 214.37Z" fill="white"/>
<path d="M610.49 218.44L608.33 222.95L604.08 220.91L606.24 216.4L610.49 218.44Z" fill="white"/>
<path d="M618.97 222.51L616.81 227.02L612.56 224.98L614.72 220.47L618.97 222.51Z" fill="white"/>
<path d="M627.46 226.58L625.3 231.09L621.05 229.05L623.21 224.54L627.46 226.58Z" fill="white"/>
<path d="M635.94 230.65L633.78 235.16L629.53 233.12L631.69 228.61L635.94 230.65Z" fill="white"/>
<path d="M644.43 234.73L642.27 239.24L638.02 237.2L640.18 232.69L644.43 234.73Z" fill="white"/>
<path opacity="0.23" d="M115.87 458.6V461.37C115.87 461.62 115.84 461.87 115.79 462.09H83.12C76.94 462.09 71.95 457.1 71.95 450.95V434.04L72.14 433.29L73.39 428.38L82.4 393H93.93L96.95 404.86L98.14 409.54L100.41 418.44L102.46 426.5L104.68 435.15L106.76 443.3L109.89 455.66H112.94C114.57 455.66 115.87 456.97 115.87 458.6Z" fill="#C68D06"/>
<path d="M105.31 456.23H60.46L77.12 390.82H88.66L105.31 456.23Z" fill="#E8AC1C"/>
<path d="M107.66 462.1H58.1C56.48 462.1 55.17 460.79 55.17 459.17V456.39C55.17 454.77 56.48 453.46 58.1 453.46H107.66C109.28 453.46 110.59 454.77 110.59 456.39V459.17C110.59 460.79 109.28 462.1 107.66 462.1Z" fill="#453B22"/>
<path d="M99.39 432.95C89.65 438.96 77.43 442.19 64.34 441.02L62.35 448.85C76.7 450.44 90.3 447.35 101.48 441.11L99.39 432.95Z" fill="white"/>
<path d="M97.18 424.3L95.13 416.25C87.49 420.42 78.51 422.93 68.9 423.09L66.86 431.11C77.84 431.31 88.2 428.79 97.18 424.3Z" fill="white"/>
<path d="M90.84 399.39C85.59 401.91 79.79 403.66 73.64 404.46L71.53 412.75C79.12 412.15 86.32 410.27 92.87 407.36L90.84 399.39Z" fill="white"/>
<path opacity="0.23" d="M353.55 451.04L341.72 443.41L334.53 438.77L325.56 432.99L318.61 428.51L310.01 422.97L303.22 418.59L299.22 416.01L300.19 413.11C300.7 411.58 299.88 409.92 298.35 409.41L295.72 408.53C294.19 408.02 292.53 408.84 292.02 410.38L276.27 457.37C275.76 458.9 276.58 460.56 278.11 461.07L280.74 461.95C282.27 462.46 283.93 461.64 284.44 460.11L285.41 457.21L298.12 458.15L306.52 458.77L315.42 459.43L323.7 460.04L332.85 460.72L339.96 461.25L349.88 461.99L353.55 451.04Z" fill="#C68D06"/>
<path d="M273.27 456.99L287.53 414.47L344.25 451.04L340.58 461.98L273.27 456.99Z" fill="#E8AC1C"/>
<path d="M266.96 457.35L282.71 410.36C283.22 408.83 284.88 408 286.41 408.51L289.04 409.39C290.57 409.9 291.4 411.56 290.88 413.09L275.13 460.08C274.62 461.61 272.96 462.44 271.43 461.92L268.8 461.04C267.27 460.55 266.44 458.89 266.96 457.35Z" fill="#453B22"/>
<path d="M297.22 458.77C294.62 447.63 295.43 435.01 300.7 422.97L293.91 418.59C287.84 431.69 286.45 445.57 288.82 458.15L297.22 458.77Z" fill="white"/>
<path d="M306.13 459.43L314.41 460.04C312.89 451.47 313.36 442.16 316.26 432.99L309.31 428.51C305.63 438.86 304.72 449.49 306.13 459.43Z" fill="white"/>
<path d="M331.76 461.33C331.04 455.55 331.22 449.5 332.42 443.41L325.23 438.77C323.39 446.15 322.88 453.58 323.56 460.71L331.76 461.33Z" fill="white"/>
<path d="M339.76 81.72L339.59 81.3C339.21 81.97 338.81 82.63 338.39 83.27C337.93 83.98 337.45 84.67 336.96 85.34C326.27 99.85 306.96 106.4 289.08 100.15C278.45 96.43 269.91 88.8 265.02 78.65C260.14 68.5 259.49 57.06 263.21 46.43C263.59 45.34 264.01 44.29 264.47 43.25C264.47 43.25 264.47 43.25 264.48 43.24C271.34 27.75 286.72 18.19 303.05 18.19C305.32 18.19 307.61 18.38 309.9 18.76C311.47 19.02 313.04 19.37 314.6 19.82L313.44 16.97C311.9 16.59 310.36 16.31 308.82 16.11C294.3 14.2 279.86 19.63 270.15 30.17C266.15 34.51 262.96 39.71 260.89 45.62C256.95 56.87 257.64 68.98 262.81 79.72C267.98 90.46 277.03 98.54 288.28 102.48C293.14 104.18 298.1 104.98 302.98 104.98C316.6 104.98 329.61 98.68 338.06 87.99C339.02 86.77 339.93 85.49 340.77 84.15L339.76 81.72Z" fill="#453B22"/>
<path d="M339.76 81.72C339.32 82.25 338.86 82.77 338.39 83.27C337.87 83.83 337.33 84.38 336.79 84.91C325.37 95.97 308.27 100.33 292.25 94.72C270.9 87.25 259.08 64.77 264.47 43.26C264.47 43.26 264.47 43.26 264.48 43.25C264.8 41.98 265.18 40.7 265.62 39.44C266.79 36.11 268.32 33.01 270.15 30.17C278.15 17.8 291.93 10.4 306.48 10.36C307.93 10.36 309.38 10.42 310.84 10.57L313.44 16.97L314.6 19.82L315.42 21.85L317.91 27.98L324.23 43.51L326.46 49L328.4 53.76L331.08 60.35L339.59 81.29L339.76 81.72Z" fill="white"/>
<path d="M315.79 27.4C318.42 28.32 319.81 31.2 318.89 33.83L309.33 61.15C308.41 63.78 305.53 65.17 302.9 64.25C300.27 63.33 298.88 60.45 299.8 57.82L309.36 30.5C310.28 27.87 313.16 26.48 315.79 27.4Z" fill="#E8AC1C"/>
<path d="M300.68 70.6C303.31 71.52 304.7 74.4 303.78 77.03C302.86 79.66 299.98 81.05 297.35 80.13C294.72 79.21 293.33 76.33 294.25 73.7C295.17 71.07 298.04 69.68 300.68 70.6Z" fill="#E8AC1C"/>
<path d="M418.18 115.65C427.862 115.65 435.71 107.802 435.71 98.12C435.71 88.4384 427.862 80.59 418.18 80.59C408.498 80.59 400.65 88.4384 400.65 98.12C400.65 107.802 408.498 115.65 418.18 115.65Z" fill="#E8AC1C"/>
<path d="M461.74 381.69C461.09 383.22 460.22 384.64 459.18 385.9C455.96 389.82 451.09 392.32 445.62 392.32C435.94 392.32 428.09 384.47 428.09 374.79C428.09 365.11 435.94 357.26 445.62 357.26C446.28 357.26 446.93 357.3 447.58 357.37C449.25 357.55 450.85 357.97 452.35 358.6L461.67 381.52L461.74 381.69Z" fill="#E8AC1C"/>
<path d="M632.73 339.32C643.87 339.32 652.9 330.29 652.9 319.15C652.9 308.01 643.87 298.98 632.73 298.98C621.59 298.98 612.56 308.01 612.56 319.15C612.56 330.29 621.59 339.32 632.73 339.32Z" fill="#E8AC1C"/>
<path d="M478.52 422.94L474.85 424.44L467.25 405.74L461.67 392.02L459.18 385.9L447.58 357.38L443.52 347.4L440.17 339.13L416.67 281.36L414.46 275.92L411.27 268.06L406.93 257.42V257.41L400.82 242.38L390.83 217.79L356.44 133.24L338.04 87.99L336.96 85.34L336.79 84.91L326.8 60.36L324.12 53.77L323.33 51.82L321.09 46.32L317.56 37.64V37.63L313.63 27.99L313.31 27.19L311.14 21.86L309.89 18.77L308.81 16.11L306.47 10.36L303 1.82001L306.66 0.339996L310.82 10.58L313.43 16.97L314.59 19.82L315.42 21.86L317.91 27.99L324.22 43.51L326.46 49.01L328.39 53.77L331.07 60.36L339.59 81.3L339.76 81.72L340.75 84.16L360.71 133.24L394.63 216.65L400.82 231.88L404.23 240.26L408.29 250.23L412.41 260.39L413.16 262.22L414.46 265.43L423 286.43L445.08 340.72L448.44 348.99L452.35 358.61L461.67 381.52L461.74 381.69L471.52 405.74L478.52 422.94Z" fill="#453B22"/>
</svg>
